<svg width="20" height="21" viewBox="0 0 20 21" fill="none" xmlns="http://www.w3.org/2000/svg">
<g clip-path="url(#clip0_6305_15005)">
<path d="M10.1236 1.11719C10.1236 1.11719 2.69902 5.09208 3.53659 11.2532C4.37416 17.4143 11.245 18.4222 14.0985 15.1287C16.1995 12.7154 15.7736 9.27992 12.4659 7.33506C9.15823 5.43279 9.39956 2.53679 10.1236 1.11719Z" fill="#DB615D"/>
<path d="M4.00452 7.52051C3.55025 8.65619 3.32311 9.90545 3.50766 11.2683C4.34523 17.4294 11.2161 18.4373 14.0695 15.1438C15.0207 14.0507 15.4465 12.7305 15.333 11.4528C13.672 13.7242 10.3502 15.0444 7.15604 13.5396C4.88468 12.4607 4.16068 9.80607 4.00452 7.52051Z" fill="#B44541"/>
<g clip-path="url(#clip1_6305_15005)">
<path d="M10.1637 12.8354L8.0625 14.7327L9.41009 17.6673L11.7595 18.084L13.8164 16.0182L12.9121 13.2876L10.1637 12.8354Z" fill="#E5EDF4"/>
<path d="M10.6426 15.1844L11.7508 18.0835L13.8076 16.0178L12.9033 13.2871L10.6426 15.1844Z" fill="#C8D8E7"/>
<path d="M10.6415 15.1851L11.7497 18.0842L9.40033 17.6675L8.05273 14.7329L10.6415 15.1851Z" fill="#B8CEE0"/>
<path d="M15.8567 13.7705L13.0861 14.3808L12.7976 17.597L14.6295 19.126L17.4409 18.3552L18.0249 15.5328L15.8567 13.7705Z" fill="#E5EDF4"/>
<path d="M15.1042 16.0484L14.6256 19.1149L17.4369 18.3442L18.0165 15.5295L15.1042 16.0484Z" fill="#C8D8E7"/>
<path d="M15.104 16.0478L14.6254 19.1143L12.7935 17.5854L13.082 14.3691L15.104 16.0478Z" fill="#B8CEE0"/>
<path d="M13.4412 17.009L15.473 18.9889L14.0126 21.8732L11.6498 22.2057L9.66801 20.0679L10.6692 17.3713L13.4412 17.009Z" fill="#E5EDF4"/>
<path d="M12.8698 19.3389L11.6584 22.2055L9.67664 20.0676L10.6782 17.3622L12.8698 19.3389Z" fill="#C8D8E7"/>
<path d="M12.8697 19.3389L11.6584 22.2054L14.0212 21.8729L15.4727 18.9883L12.8697 19.3389Z" fill="#B8CEE0"/>
</g>
</g>
<defs>
<clipPath id="clip0_6305_15005">
<rect width="20" height="20" fill="white" transform="translate(0 0.625977)"/>
</clipPath>
<clipPath id="clip1_6305_15005">
<rect width="11.0164" height="11.0164" fill="white" transform="translate(7.5293 12.0098)"/>
</clipPath>
</defs>
</svg>
